<svg width="208" height="208" viewBox="0 0 208 208" fill="none" xmlns="http://www.w3.org/2000/svg">
<g clip-path="url(#clip0)">
<path d="M84.1271 115.593C76.1782 121.555 64.9167 124.536 54.9807 124.536C41.07 124.536 28.8149 119.567 19.5411 110.956C18.879 110.294 19.5411 109.3 20.2033 109.963C30.4706 115.925 42.7257 119.237 55.6429 119.237C64.2545 119.237 73.8598 117.58 82.8022 113.606C84.1271 112.943 85.1213 114.6 84.1271 115.593Z" fill="#F7981D"/>
<path d="M84.1271 115.593C76.1782 121.555 64.9167 124.536 54.9807 124.536C41.07 124.536 28.8149 119.567 19.5411 110.956C18.879 110.294 19.5411 109.3 20.2033 109.963C30.4706 115.925 42.7257 119.237 55.6429 119.237C64.2545 119.237 73.8598 117.58 82.8022 113.606C84.1271 112.943 85.1213 114.6 84.1271 115.593Z" fill="#F7981D"/>
<path d="M84.1271 113.606C76.1782 119.237 64.9167 122.218 55.3115 122.218C42.3943 122.218 30.802 117.581 21.8589 110.294C21.5275 109.963 20.8654 109.963 20.534 109.632C19.5405 108.97 18.8777 109.964 19.8719 110.626C29.1457 119.237 41.7321 124.205 55.3115 124.205C65.2481 124.205 76.5089 121.224 84.4578 115.263C84.7899 114.931 84.7899 113.937 84.1271 113.606Z" fill="#E86E00"/>
<path d="M87.1084 111.618C86.1148 110.294 80.4844 110.956 77.8345 111.287C77.1724 111.287 76.841 110.625 77.5031 110.294C82.14 106.982 89.4268 107.975 90.0889 108.969C91.0824 109.962 89.7575 117.58 85.7834 120.892C85.1213 121.554 84.4585 121.224 84.7899 120.561C86.1148 118.243 88.1019 112.943 87.1084 111.618Z" fill="#F7981D"/>
<path d="M90.7517 109.3C91.7453 110.294 90.4203 117.912 86.4462 121.224C85.7841 121.886 85.1213 121.555 85.4527 120.892C86.4462 118.574 88.4333 113.274 87.4397 111.95" fill="#E86E00"/>
<path d="M78.1653 88.1025V85.122C78.1653 84.7906 78.4967 84.4598 78.8274 84.4598H92.7381C93.0695 84.4598 93.4002 84.7912 93.4002 85.122V87.7718C93.4002 88.1032 93.0689 88.7653 92.4067 89.7589L85.12 100.026C87.7698 100.026 90.4197 100.358 93.0689 101.683C93.731 102.014 93.731 102.345 93.731 103.007V106.319C93.731 106.651 93.3996 107.313 92.7374 106.982C88.4319 104.663 82.8008 104.663 78.1639 106.982C77.8325 107.313 77.1704 106.65 77.1704 106.319V103.339C77.1704 103.007 77.1704 102.014 77.8325 101.352L86.1128 89.4282H78.8261C78.4967 88.7654 78.1653 88.4339 78.1653 88.1025Z" fill="black"/>
<path d="M28.1528 107.313H23.8473C23.5159 107.313 23.1852 106.982 23.1852 106.651V85.122C23.1852 84.7906 23.5166 84.4599 23.8473 84.4599H27.8221C28.1535 84.4599 28.4842 84.7913 28.4842 85.122V87.7718C29.4778 85.122 31.4648 83.7971 34.1147 83.7971C36.7645 83.7971 38.4202 85.122 39.4144 87.7718C40.4079 85.122 42.7264 83.7971 45.0448 83.7971C46.7011 83.7971 48.6882 84.4592 50.0131 86.1155C51.338 87.7718 51.0066 90.421 51.0066 92.7395V106.319C51.0066 106.65 50.6752 106.981 50.3445 106.981H46.039C45.7076 106.981 45.3769 106.65 45.3769 106.319V95.0579C45.3769 94.0644 45.3769 91.746 45.3769 91.0832C45.0455 89.7582 44.052 89.0961 43.0584 89.0961C42.0649 89.0961 41.0714 89.7582 40.4086 90.7524C40.0772 91.7459 40.0772 93.733 40.0772 94.7272V105.988C40.0772 106.319 39.7458 106.65 39.4151 106.65H35.1095C34.7781 106.65 34.4474 106.319 34.4474 105.988V94.7272C34.4474 92.4087 34.7788 88.7654 31.7976 88.7654C28.8163 88.7654 28.817 92.0773 28.817 94.7272V105.988C28.815 106.982 28.4842 107.313 28.1528 107.313Z" fill="black"/>
<path d="M105.325 83.7971C111.618 83.7971 114.93 89.0968 114.93 96.0521C114.93 102.676 111.286 107.976 105.325 107.976C99.3628 107.976 96.0508 102.676 96.0508 96.0521C96.0508 89.0961 99.3634 83.7971 105.325 83.7971ZM105.325 88.1026C102.344 88.1026 102.013 92.4081 102.013 95.0579C102.013 97.7078 102.013 103.338 105.325 103.338C108.637 103.338 108.637 98.7013 108.637 96.0515C108.637 94.3951 108.637 92.0767 107.974 90.421C107.644 88.7654 106.65 88.1026 105.325 88.1026Z" fill="black"/>
<path d="M123.21 107.313H118.905C118.573 107.313 118.242 106.982 118.242 106.651V85.122C118.242 84.7906 118.574 84.4599 118.905 84.4599H122.879C123.211 84.4599 123.541 84.7913 123.541 85.122V88.434C124.866 85.4534 126.191 84.1285 129.172 84.1285C131.159 84.1285 132.815 84.7906 134.14 86.7783C135.134 88.4347 135.134 91.4152 135.134 93.4023V106.982C135.134 107.314 134.802 107.644 134.472 107.644H130.166C129.835 107.644 129.504 107.313 129.504 106.982V95.39C129.504 93.0716 129.835 89.7596 126.854 89.7596C125.861 89.7596 124.867 90.4217 124.536 91.4159C123.874 92.7408 123.874 94.0658 123.874 95.3907V106.983C123.873 106.982 123.542 107.313 123.21 107.313Z" fill="black"/>
<path d="M140.104 107.644C141.201 107.644 142.091 106.755 142.091 105.657C142.091 104.56 141.201 103.67 140.104 103.67C139.007 103.67 138.117 104.56 138.117 105.657C138.117 106.755 139.007 107.644 140.104 107.644Z" fill="#E86E00"/>
<path d="M182.497 107.313C182.166 107.313 181.835 106.982 181.835 106.651V85.122C181.835 84.7906 182.166 84.4599 182.497 84.4599H183.822C184.153 84.4599 184.484 84.7913 184.484 85.122V88.1026C185.478 85.7841 187.465 83.7971 190.115 83.7971C192.764 83.7971 194.751 85.7841 195.745 88.7654C196.738 85.7848 199.057 83.7971 202.038 83.7971C204.025 83.7971 206.013 85.122 207.006 87.109C208 89.0961 208 91.4145 208 93.733V106.65C208 106.982 207.669 107.312 207.338 107.312H205.351C205.019 107.312 204.689 106.981 204.689 106.65V93.733C204.689 92.0767 204.689 90.421 204.027 89.0961C203.364 87.7712 202.04 86.7776 200.715 86.7776C199.39 86.7776 198.065 87.7712 197.071 89.4275C196.078 91.4145 196.078 93.0709 196.078 95.0579V106.65C196.078 106.982 195.746 107.312 195.416 107.312H193.428C193.097 107.312 192.766 106.981 192.766 106.65V92.7395C192.766 91.4146 192.766 90.0896 192.104 88.7647C191.442 87.4398 190.117 86.7776 188.792 86.4462C187.467 86.4462 186.142 87.4398 185.48 88.7647C184.487 90.421 184.155 92.0767 184.155 94.0644V106.319C184.155 106.651 183.824 106.982 183.493 106.982H182.5V107.313H182.497Z" fill="#F7981D"/>
<path d="M169.911 107.644C163.949 107.644 161.3 101.683 161.3 95.3893C161.3 89.0961 164.28 83.4656 170.573 83.4656C176.535 83.4656 179.185 89.4275 179.185 95.3893C179.185 102.014 176.204 107.644 169.911 107.644ZM170.243 104.663C172.23 104.663 173.886 103.338 174.548 101.351C175.21 99.6948 175.542 97.3764 175.542 95.3893C175.542 93.0708 175.21 91.0838 174.217 89.0961C173.223 87.4397 171.898 86.4462 169.911 86.4462C167.924 86.4462 166.268 87.7711 165.606 89.7582C164.944 91.4145 164.612 93.733 164.612 95.3886C164.612 97.3757 164.944 100.026 165.606 101.682C166.93 103.67 168.586 104.663 170.243 104.663Z" fill="#F7981D"/>
<path d="M151.032 104.663C153.682 104.663 155.007 102.345 155.669 99.6948C155.669 99.3634 156.001 99.0327 156.331 99.0327H157.988C158.319 99.0327 158.65 99.3641 158.65 99.6948C157.988 104.332 155.006 107.644 151.032 107.644C145.07 107.644 142.42 101.682 142.42 95.72C142.42 89.7582 145.07 83.7964 151.032 83.7964C155.006 83.7964 157.987 87.1084 158.65 91.7453C158.65 92.0767 158.318 92.4074 157.988 92.4074H156.001C155.669 92.4074 155.338 92.076 155.338 91.7453C155.007 89.0954 153.351 87.1084 150.701 86.777C146.727 86.777 145.402 91.7453 145.402 95.7194C146.064 99.3641 147.057 104.663 151.032 104.663Z" fill="#F7981D"/>
<path d="M74.8533 103.338C73.8598 102.345 73.197 101.351 73.197 99.3634V92.7395C73.197 89.7589 73.197 87.4404 71.2099 85.4527C69.5536 84.1278 66.9044 83.465 64.9167 83.465C60.9426 83.465 56.6364 84.7899 55.6429 89.7582C55.6429 90.4203 55.9743 90.7517 56.305 90.7517L60.2798 91.4145C60.6112 91.4145 60.9426 91.0831 60.9426 90.7517C61.274 88.7647 62.5989 88.1019 64.2546 88.1019C65.2481 88.1019 65.9109 88.4333 66.573 89.0954C67.2351 89.7582 67.2351 91.0824 67.2351 92.0766V92.7388C64.5853 92.7388 61.6047 93.0702 59.2863 94.0637C56.9678 95.3886 54.9801 97.7071 54.9801 101.019C54.9801 105.325 57.6299 107.643 61.2733 107.643C64.2546 107.643 65.9102 106.981 68.2287 104.662C68.8915 105.656 69.2222 106.319 70.5471 107.312C70.8785 107.312 71.2092 107.312 71.5406 107.312C72.2034 106.319 73.8591 104.994 74.8526 104.331C75.1847 104.332 75.1847 103.67 74.8533 103.338ZM67.1631 97.0652C67.1631 98.7215 67.1631 100.046 66.5009 101.371C65.8388 102.696 64.8446 103.358 63.5197 103.358C61.8634 103.358 60.8698 102.033 60.8698 100.377C60.8698 96.7338 64.1818 96.0716 67.1631 96.0716V97.0652Z" fill="black"/>
<path d="M19.8725 103.338C18.879 102.345 18.2162 101.351 18.2162 99.3634V92.7395C18.2162 89.7589 18.2162 87.4404 16.2292 85.4527C14.5728 84.1278 11.9237 83.465 9.93594 83.465C5.96183 83.465 1.65565 84.7899 0.662126 89.7582C0.662126 90.4203 0.993526 90.7517 1.32425 90.7517L5.29903 91.4145C5.63043 91.4145 5.96116 91.0831 5.96116 90.7517C6.29256 88.7647 7.61749 88.1019 9.27314 88.1019C10.2667 88.1019 10.9295 88.4333 11.5916 89.0954C12.2537 89.7582 12.2537 91.0825 12.2537 92.0767V92.7388C9.60386 92.7388 6.62328 93.0702 4.30483 94.0637C1.98705 95.3893 0 97.7078 0 101.02C0 105.326 2.64985 107.644 6.29323 107.644C9.27449 107.644 10.9301 106.982 13.2486 104.663C13.9107 105.657 14.2421 106.319 15.567 107.313C15.8984 107.313 16.2292 107.313 16.5606 107.313C17.2227 106.319 18.879 104.995 19.8725 104.332C20.2039 104.332 20.2039 103.67 19.8725 103.338ZM11.8179 97.0652C11.8179 98.7215 11.8179 100.046 11.1558 101.371C10.493 102.696 9.49946 103.358 8.17453 103.358C6.51821 103.358 5.52468 102.033 5.52468 100.377C5.52468 96.7338 8.83666 96.0716 11.8179 96.0716V97.0652Z" fill="black"/>
<path d="M129.503 83.7971C126.523 83.7971 124.866 85.122 123.873 88.1026V84.7906C123.873 84.4592 123.541 84.1285 123.211 84.1285H119.236C118.905 84.1285 118.574 84.4599 118.574 84.7906V91.4145C124.204 89.4275 129.173 87.4398 133.478 85.1213C132.153 84.1285 130.828 83.7971 129.503 83.7971Z" fill="#545E60"/>
<path d="M105.325 83.7971C99.3627 83.7971 96.0508 89.0968 96.0508 95.7207C96.0508 96.3829 96.0508 96.7143 96.0508 97.3771C98.0378 97.0457 100.026 96.3835 102.013 96.0521C102.013 95.7207 102.013 95.39 102.013 95.0586C102.013 92.4087 102.344 88.1032 105.325 88.1032C106.65 88.1032 107.643 88.7654 107.974 90.0903C108.306 91.4152 108.637 92.7401 108.637 94.0651C110.624 93.4029 112.611 93.0715 114.598 92.4087C113.605 87.4404 110.624 83.7971 105.325 83.7971Z" fill="#545E60"/>
<path d="M92.7388 84.1284H78.8281C78.4967 84.1284 78.1659 84.4598 78.1659 84.7905V87.7711C78.1659 88.1025 78.4973 88.4332 78.8281 88.4332H86.1148L78.4967 99.6941C81.1465 99.3627 83.465 99.032 85.7834 98.7006L92.4074 89.0954C93.0695 88.1018 93.4009 87.4391 93.4009 87.1083V84.4585C93.7323 84.4591 93.0702 84.1284 92.7388 84.1284Z" fill="#545E60"/>
<path d="M71.2099 85.7841C69.5536 84.1278 66.9044 83.7971 64.9167 83.7971C60.9419 83.7971 56.6364 85.122 55.6429 90.0903C55.6429 90.7524 55.9743 90.7524 56.305 91.0838L60.2798 91.4152C60.6112 91.4152 60.9419 91.0838 60.9419 90.7531C61.2733 89.0968 62.5982 88.1032 64.2539 88.1032C65.2474 88.1032 66.2409 88.4346 66.5723 89.0968C67.2345 90.0903 67.2345 91.0838 67.2345 92.0773V92.7395C64.916 93.0709 61.604 93.0709 59.2856 94.0644C56.6357 95.0579 54.9801 97.3764 54.9801 101.02C55.9736 101.02 56.9671 101.02 57.6299 101.02C58.6234 101.02 59.9484 101.02 60.9419 101.02C60.9419 100.688 60.9419 100.688 60.9419 100.358C60.9419 96.7142 64.2539 96.0521 67.2351 96.0521V97.0456C67.2351 98.3706 67.2351 99.6955 66.573 101.02C68.8915 101.02 70.8785 100.689 73.197 100.689C73.197 100.358 73.197 100.027 73.197 99.6955V93.0715C73.1976 90.0903 73.1976 87.4404 71.2099 85.7841Z" fill="#545E60"/>
<path d="M45.3755 83.7971C43.0571 83.7971 40.7386 85.122 39.7451 87.7718C38.4202 85.122 36.7645 83.7971 34.4454 83.7971C31.7955 83.7971 29.8085 85.122 28.8149 87.7718V85.122C28.4835 84.4599 28.1528 84.1285 27.8214 84.1285H23.8466C23.5152 84.1285 23.1845 84.4599 23.1845 84.7906V97.7078C25.1716 98.0392 26.8279 98.3699 28.8149 98.7013V94.7265C28.8149 92.0767 28.8149 88.7647 31.7955 88.7647C34.7761 88.7647 34.4454 92.4081 34.4454 94.7265V99.3634C36.4324 99.6948 38.4202 99.6948 40.0758 100.026V94.7258C40.0758 93.4009 40.0758 91.7453 40.4072 90.7511C40.7386 89.7575 41.7321 89.0947 43.0571 89.0947C44.382 89.0947 45.3755 89.4261 45.3755 91.0818C45.7069 92.0753 45.3755 94.0624 45.3755 95.0566V100.687C47.3626 100.687 49.3503 101.018 51.0059 101.018V93.0695C51.0059 90.7511 51.3373 88.1012 50.0124 86.4456C49.0189 84.4592 47.0318 83.7971 45.3755 83.7971Z" fill="#545E60"/>
<path d="M9.93592 83.4656C5.96114 83.4656 1.65564 84.7906 0.662109 89.7589C0.662109 90.421 0.993509 90.421 1.32424 90.7524L5.29902 91.0838C5.63042 91.0838 5.96114 90.7524 5.96114 90.4217C6.29254 88.7653 7.61747 87.7718 9.27312 87.7718C10.2666 87.7718 11.2602 88.1032 11.5916 88.7653C12.2537 89.7589 12.2537 90.7524 12.2537 91.7459V92.4081C10.2666 93.0702 7.2854 93.0702 4.96694 94.0644C9.27245 95.3893 13.5786 96.3828 18.2155 97.3764V93.0709C18.2155 90.421 18.5469 87.7711 16.2285 85.7841C14.9042 84.1284 12.2544 83.4656 9.93592 83.4656Z" fill="#545E60"/>
</g>
<defs>
<clipPath id="clip0">
<rect width="208" height="208" fill="white"/>
</clipPath>
</defs>
</svg>
