<svg width="263" height="113" viewBox="0 0 263 113" fill="none" xmlns="http://www.w3.org/2000/svg">
<path d="M59.6371 110.883H56.5475L55.9138 112.309H55.0424L57.6566 106.526H58.4488L61.063 112.309H60.1916L59.6371 110.883ZM59.3994 110.17L58.1319 107.318L56.8644 110.17H59.3994Z" fill="#B9B9B9"/>
<path d="M70.0939 106.526V112.309H69.381L65.8953 107.952V112.309H65.1031V106.526H65.8161L69.3017 110.883V106.526H70.0939Z" fill="#B9B9B9"/>
<path d="M76.5107 111.596V112.309H72.3121V106.526H76.4315V107.239H73.1835V109.061H76.1146V109.774H73.1835V111.675H76.5107V111.596Z" fill="#B9B9B9"/>
<path d="M86.4131 106.526L84.4326 112.309H83.6404L82.056 107.635L80.4716 112.309H79.6002L77.6198 106.526H78.4912L80.0755 111.279L81.7391 106.526H82.5313L84.1157 111.279L85.7001 106.526H86.4131Z" fill="#B9B9B9"/>
<path d="M90.6117 106.526H93.0675C93.7012 106.526 94.2558 106.684 94.7311 106.922C95.2064 107.16 95.6025 107.477 95.8401 107.952C96.0778 108.427 96.2362 108.903 96.2362 109.457C96.2362 110.012 96.0778 110.566 95.8401 110.962C95.6025 111.438 95.2064 111.754 94.7311 111.992C94.2558 112.23 93.7012 112.388 93.0675 112.388H90.6117V106.526ZM93.0675 111.596C93.5428 111.596 93.9389 111.517 94.335 111.358C94.7311 111.2 94.9687 110.883 95.1272 110.566C95.2856 110.249 95.444 109.853 95.444 109.457C95.444 109.061 95.3648 108.665 95.1272 108.348C94.9687 108.031 94.6519 107.794 94.335 107.556C93.9389 107.397 93.5428 107.318 93.0675 107.318H91.4831V111.675H93.0675V111.596Z" fill="#B9B9B9"/>
<path d="M97.8998 106.526H98.692V112.309H97.8998V106.526Z" fill="#B9B9B9"/>
<path d="M106.297 112.309V108.031L104.158 111.596H103.762L101.623 108.11V112.309H100.831V106.526H101.544L104 110.645L106.376 106.526H107.089V112.309H106.297Z" fill="#B9B9B9"/>
<path d="M113.506 111.596V112.309H109.307V106.526H113.427V107.239H110.179V109.061H113.11V109.774H110.179V111.675H113.506V111.596Z" fill="#B9B9B9"/>
<path d="M120.24 106.526V112.309H119.527L116.041 107.952V112.309H115.249V106.526H115.962L119.447 110.883V106.526H120.24Z" fill="#B9B9B9"/>
<path d="M122.854 112.151C122.458 111.992 122.141 111.834 121.903 111.596L122.22 110.962C122.458 111.2 122.695 111.358 123.091 111.438C123.408 111.596 123.804 111.596 124.121 111.596C124.597 111.596 124.993 111.517 125.23 111.358C125.468 111.2 125.626 110.962 125.626 110.725C125.626 110.487 125.547 110.329 125.468 110.249C125.31 110.091 125.151 110.012 124.993 109.933C124.834 109.853 124.517 109.774 124.201 109.695C123.725 109.616 123.408 109.457 123.171 109.378C122.933 109.299 122.695 109.14 122.458 108.903C122.299 108.665 122.141 108.427 122.141 108.031C122.141 107.714 122.22 107.477 122.379 107.16C122.537 106.922 122.775 106.685 123.091 106.526C123.408 106.368 123.804 106.288 124.359 106.288C124.676 106.288 125.072 106.368 125.389 106.447C125.706 106.526 126.023 106.685 126.26 106.843L126.023 107.477C125.785 107.318 125.547 107.239 125.23 107.16C124.914 107.081 124.676 107.001 124.438 107.001C123.963 107.001 123.646 107.081 123.408 107.239C123.171 107.398 123.091 107.635 123.091 107.873C123.091 108.11 123.171 108.269 123.329 108.348C123.488 108.507 123.646 108.586 123.804 108.665C123.963 108.744 124.28 108.823 124.597 108.903C125.072 108.982 125.389 109.14 125.626 109.22C125.864 109.299 126.102 109.457 126.339 109.695C126.498 109.933 126.656 110.17 126.656 110.566C126.656 110.883 126.577 111.121 126.419 111.438C126.26 111.755 126.023 111.913 125.626 112.071C125.23 112.23 124.834 112.309 124.359 112.309C123.725 112.388 123.25 112.309 122.854 112.151Z" fill="#B9B9B9"/>
<path d="M128.003 106.526H128.795V112.309H128.003V106.526Z" fill="#B9B9B9"/>
<path d="M132.043 111.992C131.568 111.754 131.172 111.358 130.934 110.962C130.697 110.487 130.538 110.012 130.538 109.457C130.538 108.903 130.697 108.427 130.934 107.952C131.172 107.477 131.568 107.16 132.043 106.922C132.519 106.684 133.073 106.526 133.628 106.526C134.182 106.526 134.737 106.684 135.212 106.922C135.687 107.16 136.083 107.556 136.321 107.952C136.559 108.427 136.717 108.903 136.717 109.457C136.717 110.012 136.559 110.566 136.321 110.962C136.083 111.438 135.687 111.754 135.212 111.992C134.737 112.23 134.182 112.388 133.628 112.388C133.073 112.388 132.519 112.23 132.043 111.992ZM134.816 111.358C135.133 111.2 135.45 110.883 135.608 110.566C135.767 110.249 135.925 109.853 135.925 109.457C135.925 109.061 135.846 108.665 135.608 108.348C135.45 108.031 135.133 107.714 134.816 107.556C134.499 107.397 134.103 107.239 133.628 107.239C133.232 107.239 132.835 107.318 132.439 107.556C132.043 107.794 131.806 108.031 131.647 108.348C131.489 108.665 131.33 109.061 131.33 109.457C131.33 109.853 131.41 110.249 131.647 110.566C131.806 110.883 132.122 111.2 132.439 111.358C132.756 111.517 133.152 111.675 133.628 111.675C134.024 111.675 134.42 111.517 134.816 111.358Z" fill="#B9B9B9"/>
<path d="M143.451 106.526V112.309H142.738L139.252 107.952V112.309H138.46V106.526H139.173L142.659 110.883V106.526H143.451Z" fill="#B9B9B9"/>
<path d="M149.313 111.992C148.838 111.754 148.441 111.358 148.204 110.962C147.966 110.487 147.808 110.012 147.808 109.457C147.808 108.903 147.966 108.427 148.204 107.952C148.441 107.477 148.838 107.16 149.313 106.922C149.788 106.684 150.343 106.526 150.897 106.526C151.452 106.526 152.006 106.684 152.482 106.922C152.957 107.16 153.353 107.556 153.591 107.952C153.828 108.427 153.987 108.903 153.987 109.457C153.987 110.012 153.828 110.566 153.591 110.962C153.353 111.438 152.957 111.754 152.482 111.992C152.006 112.23 151.452 112.388 150.897 112.388C150.264 112.388 149.709 112.23 149.313 111.992ZM152.006 111.358C152.323 111.2 152.64 110.883 152.799 110.566C152.957 110.249 153.115 109.853 153.115 109.457C153.115 109.061 153.036 108.665 152.799 108.348C152.64 108.031 152.323 107.714 152.006 107.556C151.689 107.397 151.293 107.239 150.818 107.239C150.422 107.239 150.026 107.318 149.63 107.556C149.234 107.794 148.996 108.031 148.838 108.348C148.679 108.665 148.521 109.061 148.521 109.457C148.521 109.853 148.6 110.249 148.838 110.566C148.996 110.883 149.313 111.2 149.63 111.358C149.947 111.517 150.343 111.675 150.818 111.675C151.293 111.675 151.689 111.517 152.006 111.358Z" fill="#B9B9B9"/>
<path d="M156.443 107.239V109.299H159.374V110.012H156.443V112.388H155.65V106.605H159.77V107.318H156.443V107.239Z" fill="#B9B9B9"/>
<path d="M168.009 109.378H168.801V111.675C168.484 111.913 168.167 112.071 167.771 112.23C167.375 112.388 166.979 112.388 166.583 112.388C166.028 112.388 165.474 112.23 164.998 111.992C164.523 111.754 164.127 111.358 163.889 110.962C163.652 110.487 163.493 110.012 163.493 109.457C163.493 108.903 163.652 108.348 163.889 107.952C164.127 107.477 164.523 107.16 164.998 106.922C165.474 106.684 166.028 106.526 166.583 106.526C167.058 106.526 167.454 106.605 167.85 106.764C168.246 106.922 168.563 107.16 168.801 107.397L168.246 107.952C167.771 107.477 167.216 107.239 166.583 107.239C166.107 107.239 165.711 107.318 165.394 107.556C165.078 107.714 164.761 108.031 164.602 108.348C164.365 108.665 164.285 109.061 164.285 109.536C164.285 109.932 164.365 110.329 164.602 110.645C164.84 110.962 165.078 111.279 165.394 111.438C165.711 111.596 166.107 111.754 166.583 111.754C167.137 111.754 167.533 111.596 167.929 111.358V109.378H168.009Z" fill="#B9B9B9"/>
<path d="M174.505 110.883H171.415L170.781 112.309H169.91L172.524 106.526H173.316L175.931 112.309H175.059L174.505 110.883ZM174.267 110.17L172.999 107.318L171.732 110.17H174.267Z" fill="#B9B9B9"/>
<path d="M182.743 112.309V108.031L180.604 111.596H180.208L178.069 108.11V112.309H177.277V106.526H177.99L180.446 110.645L182.823 106.526H183.536V112.309H182.743Z" fill="#B9B9B9"/>
<path d="M185.674 106.526H186.467V112.309H185.674V106.526Z" fill="#B9B9B9"/>
<path d="M189.477 107.239V109.299H192.408V110.012H189.477V112.388H188.685V106.605H192.804V107.318H189.477V107.239Z" fill="#B9B9B9"/>
<path d="M194.389 106.526H195.181V112.309H194.389V106.526Z" fill="#B9B9B9"/>
<path d="M198.429 111.992C197.953 111.754 197.557 111.358 197.32 110.962C197.082 110.566 196.924 110.012 196.924 109.457C196.924 108.903 197.082 108.348 197.32 107.952C197.557 107.556 197.953 107.16 198.429 106.922C198.904 106.684 199.459 106.526 200.013 106.526C200.488 106.526 200.885 106.605 201.281 106.764C201.677 106.922 201.994 107.16 202.231 107.477L201.677 108.031C201.201 107.556 200.726 107.318 200.013 107.318C199.617 107.318 199.221 107.397 198.825 107.635C198.429 107.873 198.191 108.11 198.033 108.427C197.874 108.744 197.716 109.14 197.716 109.536C197.716 109.932 197.795 110.329 198.033 110.645C198.191 110.962 198.508 111.279 198.825 111.438C199.142 111.596 199.538 111.754 200.013 111.754C200.647 111.754 201.201 111.517 201.677 111.041L202.231 111.596C201.994 111.913 201.677 112.151 201.281 112.309C200.885 112.467 200.488 112.547 200.013 112.547C199.379 112.388 198.904 112.23 198.429 111.992Z" fill="#B9B9B9"/>
<path d="M207.38 110.883H204.291L203.657 112.309H202.786L205.4 106.526H206.192L208.806 112.309H208.014L207.38 110.883ZM207.064 110.17L205.796 107.318L204.529 110.17H207.064Z" fill="#B9B9B9"/>
<path d="M211.025 107.239H209.044V106.526H213.876V107.239H211.896V112.309H211.104V107.239H211.025Z" fill="#B9B9B9"/>
<path d="M215.144 106.526H215.936V112.309H215.144V106.526Z" fill="#B9B9B9"/>
<path d="M219.184 111.992C218.709 111.754 218.313 111.358 218.075 110.962C217.837 110.487 217.679 110.012 217.679 109.457C217.679 108.903 217.837 108.427 218.075 107.952C218.313 107.477 218.709 107.16 219.184 106.922C219.659 106.684 220.214 106.526 220.768 106.526C221.323 106.526 221.878 106.684 222.353 106.922C222.828 107.16 223.224 107.556 223.462 107.952C223.7 108.427 223.858 108.903 223.858 109.457C223.858 110.012 223.7 110.566 223.462 110.962C223.224 111.438 222.828 111.754 222.353 111.992C221.878 112.23 221.323 112.388 220.768 112.388C220.214 112.388 219.659 112.23 219.184 111.992ZM221.957 111.358C222.274 111.2 222.59 110.883 222.749 110.566C222.907 110.249 223.066 109.853 223.066 109.457C223.066 109.061 222.987 108.665 222.749 108.348C222.59 108.031 222.274 107.714 221.957 107.556C221.64 107.397 221.244 107.239 220.768 107.239C220.372 107.239 219.976 107.318 219.58 107.556C219.184 107.794 218.946 108.031 218.788 108.348C218.63 108.665 218.471 109.061 218.471 109.457C218.471 109.853 218.55 110.249 218.788 110.566C218.946 110.883 219.263 111.2 219.58 111.358C219.897 111.517 220.293 111.675 220.768 111.675C221.244 111.675 221.64 111.517 221.957 111.358Z" fill="#B9B9B9"/>
<path d="M230.592 106.526V112.309H229.879L226.393 107.952V112.309H225.601V106.526H226.314L229.799 110.883V106.526H230.592Z" fill="#B9B9B9"/>
<path d="M235.424 106.526H236.216V111.596H239.385V112.309H235.424V106.526Z" fill="#B9B9B9"/>
<path d="M245.01 111.596V112.309H240.811V106.526H244.93V107.239H241.682V109.061H244.613V109.774H241.682V111.675H245.01V111.596Z" fill="#B9B9B9"/>
<path d="M251.743 106.526L249.208 112.309H248.416L245.881 106.526H246.752L248.812 111.279L250.951 106.526H251.743Z" fill="#B9B9B9"/>
<path d="M257.13 111.596V112.309H252.931V106.526H257.051V107.239H253.803V109.061H256.734V109.774H253.803V111.675H257.13V111.596Z" fill="#B9B9B9"/>
<path d="M258.873 106.526H259.665V111.596H262.834V112.309H258.873V106.526Z" fill="#B9B9B9"/>
<path d="M76.9068 64.0648C79.2042 65.966 80.3133 68.5803 80.3133 71.8282C80.3133 75.1554 79.2042 77.7697 76.9068 79.5917C74.6095 81.4929 71.5199 82.4436 67.559 82.4436H60.0332V91.7122H55.6761V61.2129H67.559C71.5199 61.2129 74.6887 62.1635 76.9068 64.0648ZM73.8173 76.8982C75.2432 75.71 76.0354 74.0464 76.0354 71.8282C76.0354 69.6101 75.3225 67.9465 73.8173 66.7582C72.3914 65.5699 70.2524 65.0154 67.4798 65.0154H60.0332V78.7203H67.4798C70.2524 78.7203 72.3121 78.0865 73.8173 76.8982Z" fill="#1E115F"/>
<path d="M86.5715 59.3909H90.7701V91.7122H86.5715V59.3909Z" fill="#1E115F"/>
<path d="M114.457 70.7984C116.12 72.3828 116.992 74.6801 116.992 77.8489V91.7914H113.031V88.7019C112.318 89.8109 111.367 90.6031 110.02 91.1576C108.753 91.7122 107.168 92.0291 105.426 92.0291C102.811 92.0291 100.752 91.3953 99.2466 90.1278C97.6622 88.8603 96.9492 87.2759 96.9492 85.2162C96.9492 83.1565 97.6622 81.5722 99.1674 80.3046C100.673 79.0371 102.97 78.4826 106.218 78.4826H112.872V77.6904C112.872 75.8684 112.318 74.5217 111.288 73.571C110.258 72.6204 108.674 72.1451 106.693 72.1451C105.346 72.1451 104 72.3827 102.653 72.8581C101.385 73.3334 100.276 73.8879 99.3258 74.6801L97.583 71.5113C98.7713 70.5607 100.197 69.8477 101.861 69.2932C103.524 68.8179 105.267 68.501 107.168 68.501C110.337 68.4218 112.793 69.214 114.457 70.7984ZM110.258 87.672C111.446 86.959 112.238 85.9292 112.793 84.6617V81.4137H106.376C102.811 81.4137 101.069 82.602 101.069 84.9786C101.069 86.1668 101.544 87.0383 102.415 87.7512C103.287 88.385 104.554 88.7811 106.139 88.7811C107.723 88.7811 109.149 88.385 110.258 87.672Z" fill="#1E115F"/>
<path d="M144.542 68.5753L133.293 93.9254C132.342 96.302 131.154 97.9655 129.807 98.9162C128.46 99.8668 126.876 100.342 125.054 100.342C123.945 100.342 122.836 100.184 121.727 99.7876C120.697 99.3915 119.826 98.9162 119.113 98.2032L120.935 95.0345C122.123 96.1435 123.47 96.6981 125.054 96.6981C126.084 96.6981 126.955 96.4604 127.589 95.9059C128.302 95.3513 128.857 94.4799 129.411 93.1332L130.124 91.5488L119.905 68.4961H124.262L132.342 86.9541L140.343 68.4961H144.542V68.5753Z" fill="#1E115F"/>
<path d="M162.305 90.3655C161.671 90.92 160.958 91.3161 160.008 91.5538C159.136 91.7914 158.185 91.9499 157.235 91.9499C154.938 91.9499 153.115 91.3161 151.848 90.0486C150.58 88.7811 149.947 87.0383 149.947 84.6617V71.9867H145.986V68.5803H149.947V63.5103H154.145V68.5803H160.8V71.9867H154.145V84.5033C154.145 85.7708 154.462 86.7214 155.096 87.3552C155.73 87.9889 156.601 88.385 157.789 88.385C159.057 88.385 160.166 87.9889 161.037 87.2759L162.305 90.3655Z" fill="#1E115F"/>
<path d="M186.704 70.9568C188.447 72.6204 189.319 75.1554 189.319 78.4034V91.7122H185.12V78.8787C185.12 76.6606 184.565 74.9178 183.536 73.8087C182.426 72.6997 180.921 72.1451 178.941 72.1451C176.643 72.1451 174.901 72.7789 173.554 74.1256C172.286 75.4723 171.573 77.3736 171.573 79.8294V91.7122H167.375V59.3909H171.573V71.9075C172.445 70.7984 173.554 69.927 174.98 69.3725C176.406 68.7387 177.99 68.4218 179.733 68.4218C182.664 68.4218 184.961 69.2932 186.704 70.9568Z" fill="#1E115F"/>
<path d="M217.996 81.5722H199.221C199.459 83.6319 200.409 85.2163 201.914 86.4838C203.42 87.7513 205.321 88.3058 207.618 88.3058C210.391 88.3058 212.609 87.3552 214.273 85.5332L216.57 88.2266C215.54 89.4149 214.193 90.3655 212.688 90.9993C211.104 91.633 209.361 91.9499 207.46 91.9499C205.004 91.9499 202.865 91.4746 200.964 90.4448C199.063 89.4149 197.637 88.0682 196.607 86.2461C195.577 84.4241 195.022 82.4436 195.022 80.1463C195.022 77.9282 195.498 75.8685 196.527 74.1256C197.557 72.3036 198.904 70.9569 200.647 69.927C202.39 68.8972 204.37 68.4219 206.588 68.4219C208.806 68.4219 210.787 68.8972 212.53 69.927C214.273 70.9569 215.619 72.3036 216.57 74.1256C217.521 75.9477 217.996 78.0074 217.996 80.3047C218.075 80.6216 217.996 81.0177 217.996 81.5722ZM201.598 73.8088C200.251 74.9971 199.459 76.6606 199.221 78.6411H214.035C213.797 76.6606 213.005 75.0763 211.658 73.888C210.312 72.6205 208.648 72.0659 206.588 72.0659C204.608 71.9867 202.944 72.5413 201.598 73.8088Z" fill="#1E115F"/>
<path d="M259.665 70.9568C261.329 72.6204 262.2 75.1555 262.2 78.4827V91.7914H258.001V78.958C258.001 76.7398 257.447 74.997 256.417 73.8879C255.387 72.7789 253.882 72.2244 251.981 72.2244C249.842 72.2244 248.178 72.8581 246.911 74.2048C245.643 75.5516 245.01 77.4528 245.01 79.9086V91.7914H240.811V78.958C240.811 76.7398 240.256 74.997 239.227 73.8879C238.197 72.7789 236.691 72.2244 234.79 72.2244C232.651 72.2244 230.988 72.8581 229.72 74.2048C228.453 75.5516 227.819 77.4528 227.819 79.9086V91.7914H223.858V68.7387H227.898V72.1451C228.77 70.9568 229.879 70.0854 231.225 69.4517C232.572 68.8179 234.157 68.5011 235.899 68.5011C237.721 68.5011 239.306 68.8972 240.652 69.6101C242.078 70.3231 243.108 71.4322 243.9 72.7789C244.772 71.4322 245.96 70.4023 247.545 69.6101C249.129 68.8179 250.872 68.5011 252.773 68.5011C255.625 68.4218 257.922 69.2933 259.665 70.9568Z" fill="#1E115F"/>
<path d="M27.6326 88.0681C30.0884 89.4941 32.6234 90.6824 35.3168 91.5538C37.3765 92.1875 39.5947 92.7421 41.5751 92.5836C46.0114 92.5836 45.9322 96.6238 44.8231 98.2874C44.0309 99.4757 43.2387 100.268 37.7726 98.525C30.6429 96.2277 18.364 92.346 7.82786 76.1061C-2.70827 59.8662 1.25268 38.6355 3.23316 34.1992C5.21363 29.763 9.17458 13.9192 39.2778 10.7504C69.381 7.58166 83.6404 43.2302 83.6404 43.2302L88.6312 52.578C88.6312 52.578 80.0756 51.9443 76.273 43.6263C72.4705 35.3083 68.668 31.9019 68.668 31.9019C68.668 31.9019 60.1916 22.2372 48.1503 21.2073C36.109 20.1775 26.0482 22.7917 15.9874 36.1797C5.9266 49.5677 9.09536 65.8868 12.2641 71.1945C15.3537 76.3437 17.1757 80.067 25.8898 86.8799C26.4443 87.276 26.9988 87.6721 27.6326 88.0681Z" fill="url(#paint0_linear)"/>
<path d="M8.30311 25.3267C7.99852 25.7435 7.23928 25.3445 7.49118 24.8939C9.46142 21.3693 11.9817 17.7374 15.0367 15.0282C23.4339 7.58161 32.9402 0.451904 52.745 0.451904C72.5497 0.451904 89.2649 16.2165 93.1466 24.1384C97.8998 32.1395 103.92 44.1808 96.157 50.4391C88.3935 56.6974 78.7288 48.4586 77.6197 44.26C76.7712 41.0478 75.83 38.7166 75.4345 37.7986C75.3098 37.5089 75.1859 37.2298 75.0579 36.9415C74.0742 34.7276 69.2529 24.4841 62.4889 20.2566C57.6565 17.3255 54.567 15.5827 49.4178 14.0776C45.3776 12.8893 40.7829 12.0179 34.5246 12.3348C17.8886 13.1269 9.80827 23.267 8.30311 25.3267Z" fill="url(#paint1_linear)"/>
<path d="M89.9779 50.8352H89.5026C83.7988 50.4391 79.3625 46.7158 77.7782 41.2497C75.2432 32.2187 69.5394 17.8801 49.497 12.2555C29.4546 6.63098 8.85765 15.2658 2.99545 35.1498C3.07467 34.8329 3.15389 34.5953 3.23311 34.2784C2.91623 35.1498 2.67857 36.0212 2.44092 36.8926C8.30312 17.0879 28.9001 8.3738 48.9425 13.9983C68.9848 19.6229 74.7678 34.0407 77.2236 42.9925C78.7288 48.4586 83.2443 52.2611 88.948 52.578H89.4234C94.4934 52.8949 98.6127 49.4092 99.6426 44.8145C98.0582 48.5378 94.3349 51.152 89.9779 50.8352Z" fill="url(#paint2_linear)"/>
<defs>
<linearGradient id="paint0_linear" x1="14.7902" y1="69.9409" x2="84.8232" y2="16.9676" gradientUnits="userSpaceOnUse">
<stop stop-color="#9B3DB4"/>
<stop offset="0.9993" stop-color="#00E6FF"/>
</linearGradient>
<linearGradient id="paint1_linear" x1="2.28825" y1="26.5873" x2="99.7076" y2="26.5873" gradientUnits="userSpaceOnUse">
<stop stop-color="#FF9D00"/>
<stop offset="0.9993" stop-color="#FF55E1"/>
</linearGradient>
<linearGradient id="paint2_linear" x1="8.08254" y1="18.8426" x2="98.794" y2="47.5479" gradientUnits="userSpaceOnUse">
<stop stop-color="#8927B5"/>
<stop offset="1" stop-color="#8786FC" stop-opacity="0"/>
</linearGradient>
</defs>
</svg>
