<svg width="192" height="192" viewBox="0 0 192 192" fill="none" xmlns="http://www.w3.org/2000/svg">
<g clip-path="url(#clip0)">
<path d="M2.16774 104.052C3.71613 104.981 6.8129 106.219 9.6 105.91C12.0774 105.91 13.6258 104.671 13.6258 102.813C13.6258 101.265 12.6968 100.026 9.90968 98.4774C6.50323 96.6193 4.02581 93.8322 4.02581 90.1161C4.02581 83.6129 9.6 79.2774 17.3419 79.2774C20.7484 79.2774 23.5355 79.8968 25.0839 80.8258L22.9161 87.329C21.6774 86.7097 19.5097 86.0903 17.3419 86.0903C14.8645 86.0903 13.0065 87.329 13.0065 89.1871C13.0065 90.7355 14.2452 91.6645 16.4129 92.9032C19.8194 95.071 22.9161 97.858 22.9161 101.574C22.9161 108.697 17.0323 113.032 8.98065 112.723C5.26452 112.723 1.85806 111.794 0 110.555L2.16774 104.052Z" fill="#B4E52C"/>
<path d="M24.7742 111.484L33.7548 65.0322H42.7355L39.329 83.6129V83.9226C41.8064 81.1355 44.9032 79.2774 48.929 79.2774C53.5742 79.2774 56.3613 82.3742 56.3613 87.6387C56.3613 89.1871 56.0516 91.3548 55.7419 93.2129L52.3355 111.484H43.3548L46.7613 93.5226C47.0709 92.2838 47.0709 91.0451 47.0709 89.8064C47.0709 87.9484 46.1419 86.4 44.2838 86.4C41.4968 86.4 38.4 89.8064 37.1613 95.6903L34.0645 111.174H24.7742V111.484Z" fill="#B4E52C"/>
<path d="M89.4968 91.9742C89.4968 103.123 82.3742 112.723 71.5355 112.723C63.4839 112.723 59.1484 107.148 59.1484 100.026C59.1484 88.8774 66.271 79.2774 77.4193 79.2774C85.471 79.2774 89.4968 85.471 89.4968 91.9742ZM68.129 100.026C68.129 103.432 69.3677 105.91 72.4645 105.91C77.4193 105.91 79.8968 97.2387 79.8968 91.6645C79.8968 88.8774 78.9677 86.0903 75.5613 86.0903C70.9161 86.4 68.129 94.7613 68.129 100.026Z" fill="#B4E52C"/>
<path d="M87.0193 123.871L93.2129 91.6645C93.8322 87.9483 94.7613 83.6129 95.071 80.5161H103.123L102.503 83.6129C104.981 80.5161 108.387 78.658 112.103 78.658C118.606 78.658 121.394 84.5419 121.394 90.4258C121.394 101.574 114.271 112.413 103.742 112.413C102.194 112.723 100.026 111.484 99.0968 111.484H98.7871L96.3097 123.871H87.0193ZM100.026 104.671C100.955 105.6 102.194 105.91 103.742 105.91C108.697 105.91 112.413 97.5483 112.413 91.6645C112.413 89.1871 111.484 86.7096 108.697 86.7096C105.6 86.7096 102.503 90.4258 101.574 96L100.026 104.671Z" fill="#B4E52C"/>
<path d="M122.323 111.484L128.516 80.5161H137.806L131.613 111.484H122.323ZM134.09 77.4193C131.613 77.4193 129.755 74.9419 129.755 72.1548C129.755 69.058 131.923 66.5806 135.019 66.5806C137.806 66.5806 139.664 69.058 139.664 71.5355C139.355 74.9419 136.877 77.4193 134.09 77.4193Z" fill="#B4E52C"/>
<path d="M139.355 111.484L144.31 86.7096H139.974L141.213 80.5161H145.548L145.858 78.658C146.477 74.9419 148.026 70.9161 151.123 68.129C153.6 65.9613 156.697 65.0322 160.103 65.0322C162.271 65.0322 164.129 65.3419 165.058 65.6516L163.2 72.7742C162.271 72.4645 161.342 72.1548 160.413 72.1548C157.316 72.1548 155.458 75.2516 155.148 78.3484L154.219 80.5161H160.413L159.174 86.7096H152.981L148.026 111.484H139.355Z" fill="#B4E52C"/>
<path d="M171.871 80.5161L173.419 94.7613C173.729 97.8581 174.039 99.0968 174.348 102.194C174.968 99.0968 175.587 98.1677 177.135 94.7613L182.71 80.5161H192L180.852 104.052C176.826 112.103 173.11 117.987 168.774 122.013C165.677 125.11 161.652 126.348 159.794 126.968L157.316 119.226C158.864 118.606 160.723 117.987 162.581 116.748C164.748 115.2 166.606 113.342 167.535 111.174C167.845 110.865 167.845 110.555 167.845 109.935L162.271 80.5161H171.871Z" fill="#B4E52C"/>
<path d="M17.3419 79.2774C20.7484 79.2774 23.5355 79.8968 25.0839 80.8258L22.9161 87.329C21.6774 86.7097 19.5097 86.0903 17.3419 86.0903C14.8645 86.0903 13.0065 87.329 13.0065 89.1871C13.0065 90.7355 14.2452 91.6645 16.4129 92.9032C19.8194 95.071 22.9161 97.858 22.9161 101.574C22.9161 108.697 17.0323 113.032 8.98065 112.723C5.26452 112.723 1.85806 111.794 0 110.555L2.16774 104.052C3.71613 104.981 6.8129 106.219 9.6 105.91C12.0774 105.91 13.6258 104.671 13.6258 102.813C13.6258 101.265 12.6968 100.026 9.90968 98.4774C6.50323 96.6193 4.02581 93.8322 4.02581 90.1161" fill="#8BB43F"/>
<path d="M24.7742 111.484L32.8258 74.6323L42.7355 65.6516L39.329 83.9226C41.8064 81.1355 44.9032 79.2774 48.929 79.2774C53.5742 79.2774 56.3613 82.3742 56.3613 87.6387C56.3613 89.1871 56.0516 91.3548 55.7419 93.2129L52.3355 111.484H43.3548L46.7613 93.5226C47.0709 92.2839 47.0709 91.0452 47.0709 89.8064C47.0709 87.9484 46.1419 86.4 44.2838 86.4C41.4968 86.4 38.4 89.8064 37.1613 95.6903L34.0645 111.174H24.7742V111.484Z" fill="#8BB43F"/>
<path d="M77.1097 79.2774C85.471 79.2774 89.4968 85.471 89.4968 91.9742C89.4968 103.123 82.3742 112.723 71.5355 112.723C63.4839 112.723 59.1484 107.148 59.1484 100.026L77.1097 79.2774ZM68.129 100.026C68.129 103.432 69.3677 105.91 72.4645 105.91C77.4193 105.91 79.8968 97.2387 79.8968 91.6645C79.8968 88.8774 78.9677 86.0903 75.5613 86.0903C70.9161 86.4 68.129 94.7613 68.129 100.026Z" fill="#8BB43F"/>
<path d="M103.432 80.5161L102.813 83.6129C105.29 80.5161 108.697 78.658 112.413 78.658C118.916 78.658 121.703 84.5419 121.703 90.4258C121.703 101.574 114.581 112.413 104.052 112.413C102.194 112.723 100.026 111.484 99.0968 111.484H98.7871L96.3097 123.871H87.329L93.5226 91.0451L103.432 80.5161ZM100.026 104.671C100.955 105.6 102.194 105.91 103.742 105.91C108.697 105.91 112.413 97.5483 112.413 91.6645C112.413 89.1871 111.484 86.7096 108.697 86.7096C105.6 86.7096 102.503 90.4258 101.574 96L100.026 104.671Z" fill="#8BB43F"/>
<path d="M122.323 111.484L128.516 87.9484L137.806 80.5161L131.613 111.484H122.323ZM135.019 66.5806C137.806 66.5806 139.664 68.7484 139.664 71.5355C139.664 74.9419 137.187 77.4193 134.4 77.4193C131.923 77.4193 130.065 74.9419 130.065 72.1548" fill="#8BB43F"/>
<path d="M159.794 65.0322C161.961 65.0322 163.819 65.3419 164.748 65.9613L162.89 73.0838C161.961 72.7742 161.032 72.4645 160.103 72.4645C157.006 72.4645 155.148 75.5613 154.839 78.658L154.219 80.5161H160.413L159.174 86.7096H152.981L148.026 111.484H139.355L144.31 86.7096H139.974L141.213 80.5161H145.548L145.858 78.658" fill="#8BB43F"/>
<path d="M171.871 80.5161L173.419 94.4516C173.729 97.5484 174.039 99.0968 174.348 102.194C174.968 99.0968 175.587 98.1677 177.135 94.7613L182.71 80.5161H192L180.852 104.052C176.826 112.103 173.11 117.987 168.774 122.013C165.677 125.11 161.652 126.348 159.794 126.968L157.316 119.226C158.864 118.606 160.723 117.987 162.581 116.748C164.748 115.2 166.606 113.342 167.535 111.174C167.845 110.865 167.845 110.245 167.845 109.626L165.677 87.329L171.871 80.5161Z" fill="#8BB43F"/>
</g>
<defs>
<clipPath id="clip0">
<rect width="192" height="192" fill="white"/>
</clipPath>
</defs>
</svg>
